{
  "asset": {
    "version": "2.0",
    "generator": "THREE.GLTFExporter"
  },
  "scenes": [
    {
      "nodes": [
        0
      ]
    }
  ],
  "scene": 0,
  "nodes": [
    {
      "children": [
        1,
        7,
        8,
        9
      ],
      "matrix": [
        0.01,
        0,
        0,
        0,
        0,
        0.01,
        0,
        0,
        0,
        0,
        0.01,
        0,
        0,
        0,
        0,
        1
      ]
    },
    {
      "matrix": [
        0.33928672886836847,
        0.37337100201340445,
        -0.8634110321679406,
        0,
        -0.7400796158439902,
        0.6725192653093381,
        0,
        0,
        0.5806605530135607,
        0.6389929050023125,
        0.5045011293651298,
        0,
        0,
        0,
        0,
        1
      ],
      "name": "Directional Light",
      "extensions": {
        "KHR_lights_punctual": {
          "light": 0
        }
      }
    },
    {
      "matrix": [
        5.624000546145828,
        0,
        0,
        0,
        0,
        6.473832344811914,
        0,
        0,
        0,
        0,
        5.624000546145828,
        0,
        7.479544516014836,
        95.68967394484416,
        75.09207845535667,
        0.9999999999999998
      ],
      "name": "numbers 2",
      "mesh": 0
    },
    {
      "matrix": [
        1,
        0,
        0,
        0,
        0,
        1,
        0,
        0,
        0,
        0,
        1,
        0,
        -0.0007794575244091106,
        164.1016968889596,
        62.142135963385485,
        1
      ],
      "name": "buttons",
      "mesh": 1
    },
    {
      "matrix": [
        1,
        0,
        0,
        0,
        0,
        1,
        0,
        0,
        0,
        0,
        1,
        0,
        -3.437070660362835,
        21.87027008598101,
        -2.230023543283721,
        1
      ],
      "name": "legs",
      "mesh": 2
    },
    {
      "matrix": [
        1.688678622209,
        0,
        0,
        0,
        0,
        3.749619775137437e-16,
        1.6886786222090004,
        0,
        0,
        -1.6886786222090004,
        3.749619775137437e-16,
        0,
        -4.44875059985306,
        97.57997250043897,
        16.206044931762754,
        1
      ],
      "name": "whitescreen",
      "mesh": 3
    },
    {
      "matrix": [
        1.688678622209,
        0,
        0,
        0,
        0,
        3.749619775137437e-16,
        1.6886786222090004,
        0,
        0,
        -1.6886786222090004,
        3.749619775137437e-16,
        0,
        -4.44875059985306,
        97.18422686849559,
        -0.8249259087993144,
        1
      ],
      "name": "body",
      "mesh": 4
    },
    {
      "name": "clock_03",
      "children": [
        2,
        3,
        4,
        5,
        6
      ]
    },
    {
      "matrix": [
        0.8147826688899579,
        1.3559959835540702e-8,
        -0.5797665068599229,
        0,
        -0.24038425693388443,
        0.9099935002484185,
        -0.33782723176791973,
        0,
        0.5275837483233363,
        0.41462251447024845,
        0.7414469360645218,
        0,
        514.4872525246354,
        472.3595731262094,
        766.8374221890674,
        1
      ],
      "camera": 0
    },
    {
      "matrix": [
        1,
        0,
        0,
        0,
        0,
        1,
        0,
        0,
        0,
        0,
        1,
        0,
        0,
        1,
        0,
        1
      ],
      "name": "Default Ambient Light"
    }
  ],
  "extensions": {
    "KHR_lights_punctual": {
      "lights": [
        {
          "name": "Directional Light",
          "color": [
            1,
            1,
            1
          ],
          "intensity": 1,
          "type": "directional"
        }
      ]
    }
  },
  "bufferViews": [
    {
      "buffer": 0,
      "byteOffset": 0,
      "byteLength": 9108,
      "target": 34962,
      "byteStride": 12
    },
    {
      "buffer": 0,
      "byteOffset": 9108,
      "byteLength": 9108,
      "target": 34962,
      "byteStride": 12
    },
    {
      "buffer": 0,
      "byteOffset": 18216,
      "byteLength": 6072,
      "target": 34962,
      "byteStride": 8
    },
    {
      "buffer": 0,
      "byteOffset": 24288,
      "byteLength": 4496,
      "target": 34963
    },
    {
      "buffer": 0,
      "byteOffset": 28784,
      "byteLength": 1152,
      "target": 34962,
      "byteStride": 12
    },
    {
      "buffer": 0,
      "byteOffset": 29936,
      "byteLength": 1152,
      "target": 34962,
      "byteStride": 12
    },
    {
      "buffer": 0,
      "byteOffset": 31088,
      "byteLength": 576,
      "target": 34963
    },
    {
      "buffer": 0,
      "byteOffset": 31664,
      "byteLength": 2880,
      "target": 34962,
      "byteStride": 12
    },
    {
      "buffer": 0,
      "byteOffset": 34544,
      "byteLength": 2880,
      "target": 34962,
      "byteStride": 12
    },
    {
      "buffer": 0,
      "byteOffset": 37424,
      "byteLength": 1152,
      "target": 34963
    },
    {
      "buffer": 0,
      "byteOffset": 38576,
      "byteLength": 576,
      "target": 34962,
      "byteStride": 12
    },
    {
      "buffer": 0,
      "byteOffset": 39152,
      "byteLength": 576,
      "target": 34962,
      "byteStride": 12
    },
    {
      "buffer": 0,
      "byteOffset": 39728,
      "byteLength": 192,
      "target": 34963
    },
    {
      "buffer": 0,
      "byteOffset": 39920,
      "byteLength": 29184,
      "target": 34962,
      "byteStride": 12
    },
    {
      "buffer": 0,
      "byteOffset": 69104,
      "byteLength": 29184,
      "target": 34962,
      "byteStride": 12
    },
    {
      "buffer": 0,
      "byteOffset": 98288,
      "byteLength": 14592,
      "target": 34963
    }
  ],
  "buffers": [
    {
      "byteLength": 112880,
      "uri": "data:application/octet-stream;base64,"
    }
  ],
  "accessors": [
    {
      "bufferView": 0,
      "componentType": 5126,
      "count": 759,
      "max": [
        23.78809356689453,
        5.418636798858643,
        0
      ],
      "min": [
        -27.47590446472168,
        -4.533362865447998,
        0
      ],
      "type": "VEC3"
    },
    {
      "bufferView": 1,
      "componentType": 5126,
      "count": 759,
      "max": [
        0,
        0,
        1
      ],
      "min": [
        0,
        0,
        1
      ],
      "type": "VEC3"
    },
    {
      "bufferView": 2,
      "componentType": 5126,
      "count": 759,
      "max": [
        1,
        1
      ],
      "min": [
        0,
        0
      ],
      "type": "VEC2"
    },
    {
      "bufferView": 3,
      "componentType": 5123,
      "count": 2247,
      "max": [
        758
      ],
      "min": [
        0
      ],
      "type": "SCALAR"
    },
    {
      "bufferView": 4,
      "componentType": 5126,
      "count": 96,
      "max": [
        84.27942657470703,
        5.995671272277832,
        9.879654884338379
      ],
      "min": [
        -84.27942657470703,
        -5.995671272277832,
        -9.879654884338379
      ],
      "type": "VEC3"
    },
    {
      "bufferView": 5,
      "componentType": 5126,
      "count": 96,
      "max": [
        1,
        1,
        1
      ],
      "min": [
        -1,
        -1,
        -1
      ],
      "type": "VEC3"
    },
    {
      "bufferView": 6,
      "componentType": 5125,
      "count": 144,
      "max": [
        95
      ],
      "min": [
        0
      ],
      "type": "SCALAR"
    },
    {
      "bufferView": 7,
      "componentType": 5126,
      "count": 240,
      "max": [
        132.40762329101562,
        17.784976959228516,
        61.46318435668945
      ],
      "min": [
        -132.40762329101562,
        -17.784976959228516,
        -61.46318435668945
      ],
      "type": "VEC3"
    },
    {
      "bufferView": 8,
      "componentType": 5126,
      "count": 240,
      "max": [
        0.9764546751976013,
        1,
        0.8456346392631531
      ],
      "min": [
        -0.9764546751976013,
        -1,
        -0.8456346392631531
      ],
      "type": "VEC3"
    },
    {
      "bufferView": 9,
      "componentType": 5125,
      "count": 288,
      "max": [
        239
      ],
      "min": [
        0
      ],
      "type": "SCALAR"
    },
    {
      "bufferView": 10,
      "componentType": 5126,
      "count": 48,
      "max": [
        116.77928161621094,
        32.34191131591797,
        34.649986267089844
      ],
      "min": [
        -111.51036834716797,
        32.34191131591797,
        -36.27374267578125
      ],
      "type": "VEC3"
    },
    {
      "bufferView": 11,
      "componentType": 5126,
      "count": 48,
      "max": [
        0,
        1,
        0
      ],
      "min": [
        0,
        0.9999999403953552,
        0
      ],
      "type": "VEC3"
    },
    {
      "bufferView": 12,
      "componentType": 5125,
      "count": 48,
      "max": [
        47
      ],
      "min": [
        0
      ],
      "type": "SCALAR"
    },
    {
      "bufferView": 13,
      "componentType": 5126,
      "count": 2432,
      "max": [
        120.89692687988281,
        50,
        39.45741653442383
      ],
      "min": [
        -115.62802124023438,
        -49.89209747314453,
        -41.0811767578125
      ],
      "type": "VEC3"
    },
    {
      "bufferView": 14,
      "componentType": 5126,
      "count": 2432,
      "max": [
        1,
        1,
        1
      ],
      "min": [
        -1,
        -1,
        -1
      ],
      "type": "VEC3"
    },
    {
      "bufferView": 15,
      "componentType": 5125,
      "count": 3648,
      "max": [
        2431
      ],
      "min": [
        0
      ],
      "type": "SCALAR"
    }
  ],
  "meshes": [
    {
      "primitives": [
        {
          "mode": 4,
          "attributes": {
            "POSITION": 0,
            "NORMAL": 1,
            "TEXCOORD_0": 2
          },
          "extras": {
            "parameters": {
              "type": "TextGeometry",
              "width": 57.831808287808904,
              "height": 21.33327387970055,
              "depth": 0,
              "horizontalAlign": 1,
              "verticalAlign": 1,
              "fontSize": 16,
              "lineHeight": 1.2,
              "letterSpacing": 0,
              "text": "02 : 33",
              "textTransform": 1,
              "font": "Sarpanch_regular",
              "extrudeBevelSize": 0,
              "extrudeBevelSegments": 1
            },
            "type": "TextGeometry"
          },
          "indices": 3
        }
      ]
    },
    {
      "primitives": [
        {
          "mode": 4,
          "attributes": {
            "POSITION": 4,
            "NORMAL": 5
          },
          "extras": {
            "type": "SubdivGeometry",
            "parameters": {
              "width": 168.55885314941406,
              "height": 11.991342544555664,
              "depth": 19.759309768676758
            }
          },
          "indices": 6
        }
      ]
    },
    {
      "primitives": [
        {
          "mode": 4,
          "attributes": {
            "POSITION": 7,
            "NORMAL": 8
          },
          "extras": {
            "type": "SubdivGeometry",
            "parameters": {
              "width": 264.81524658203125,
              "height": 35.56995391845703,
              "depth": 122.9263687133789
            }
          },
          "indices": 9
        }
      ]
    },
    {
      "primitives": [
        {
          "mode": 4,
          "attributes": {
            "POSITION": 10,
            "NORMAL": 11
          },
          "extras": {
            "type": "SubdivGeometry",
            "parameters": {
              "width": 228.2896499633789,
              "height": 0,
              "depth": 70.9237289428711
            }
          },
          "indices": 12
        }
      ]
    },
    {
      "primitives": [
        {
          "mode": 4,
          "attributes": {
            "POSITION": 13,
            "NORMAL": 14
          },
          "extras": {
            "type": "SubdivGeometry",
            "parameters": {
              "width": 238.4279556274414,
              "height": 99.89209365844727,
              "depth": 80.86751556396484
            }
          },
          "indices": 15
        }
      ]
    }
  ],
  "cameras": [
    {
      "type": "orthographic",
      "orthographic": {
        "xmag": 7.2,
        "ymag": 3.1300000000000003,
        "zfar": 100000,
        "znear": 0
      }
    }
  ],
  "extensionsUsed": [
    "KHR_lights_punctual"
  ]
}